<svg width="80" height="80" viewBox="0 0 80 80" fill="none" xmlns="http://www.w3.org/2000/svg">
<path d="M80 40C80 47.9113 77.6541 55.6449 73.2588 62.2228C68.8636 68.8008 62.6164 73.9277 55.3074 76.9552C47.9983 79.9827 39.9556 80.7748 32.1964 79.2314C24.4372 77.688 17.3099 73.8784 11.7158 68.2843C6.12165 62.6902 2.31202 55.5628 0.768607 47.8036C-0.774802 40.0443 0.0173314 32.0017 3.04484 24.6927C6.07234 17.3836 11.1992 11.1365 17.7772 6.74121C24.3552 2.34595 32.0888 0 40 0C50.6087 0 60.7828 4.21424 68.2843 11.7157C75.7857 19.2172 80 29.3913 80 40Z" fill="#FFCA28"/>
<path d="M16.6 35.1C16.284 35.0967 15.976 35.0005 15.7143 34.8234C15.4526 34.6462 15.2488 34.3961 15.1283 34.1039C15.0078 33.8118 14.976 33.4906 15.0368 33.1805C15.0975 32.8704 15.2482 32.5851 15.47 32.36L31.65 16.18C31.7987 16.0303 31.9755 15.9116 32.1703 15.8305C32.3651 15.7495 32.574 15.7077 32.785 15.7077C32.996 15.7077 33.2049 15.7495 33.3997 15.8305C33.5944 15.9116 33.7713 16.0303 33.92 16.18C34.2174 16.4829 34.384 16.8905 34.384 17.315C34.384 17.7395 34.2174 18.1471 33.92 18.45L17.74 34.63C17.4356 34.929 17.0267 35.0976 16.6 35.1V35.1Z" fill="#263238"/>
<path d="M32.79 35.1C32.3633 35.0976 31.9544 34.929 31.65 34.63L15.47 18.45C15.2065 18.142 15.0689 17.7459 15.0847 17.3409C15.1004 16.9358 15.2684 16.5516 15.555 16.265C15.8416 15.9784 16.2258 15.8104 16.6308 15.7947C17.0359 15.7789 17.432 15.9165 17.74 16.18L33.92 32.37C34.1432 32.5937 34.2951 32.8786 34.3567 33.1886C34.4182 33.4986 34.3865 33.8199 34.2656 34.1119C34.1447 34.404 33.9401 34.6536 33.6775 34.8295C33.4148 35.0053 33.106 35.0994 32.79 35.1V35.1Z" fill="#263238"/>
<path d="M47.21 35.1C46.786 35.0993 46.3795 34.9302 46.08 34.63C45.7826 34.3271 45.616 33.9195 45.616 33.495C45.616 33.0705 45.7826 32.6629 46.08 32.36L62.27 16.18C62.571 15.8803 62.9788 15.7124 63.4036 15.7134C63.8283 15.7143 64.2353 15.884 64.535 16.185C64.8347 16.486 65.0026 16.8938 65.0016 17.3185C65.0007 17.7433 64.8311 18.1503 64.53 18.45L48.35 34.63C48.0456 34.929 47.6367 35.0976 47.21 35.1V35.1Z" fill="#263238"/>
<path d="M63.4 35.1C62.976 35.0992 62.5695 34.9302 62.27 34.63L46.08 18.45C45.8165 18.142 45.6789 17.7459 45.6947 17.3409C45.7105 16.9358 45.8784 16.5516 46.1651 16.265C46.4517 15.9784 46.8359 15.8104 47.2409 15.7947C47.6459 15.7789 48.042 15.9165 48.35 16.18L64.53 32.36C64.7518 32.5851 64.9025 32.8704 64.9633 33.1805C65.024 33.4906 64.9921 33.8118 64.8717 34.1039C64.7512 34.3961 64.5474 34.6462 64.2857 34.8234C64.024 35.0005 63.716 35.0967 63.4 35.1Z" fill="#263238"/>
<path d="M48.6 51.48H31.4C30.8237 52.8907 30.6032 54.4216 30.7581 55.9377C30.913 57.4537 31.4385 58.9084 32.2882 60.1734C33.1379 61.4384 34.2858 62.475 35.6307 63.1918C36.9756 63.9085 38.4761 64.2834 40 64.2834C41.524 64.2834 43.0245 63.9085 44.3693 63.1918C45.7142 62.475 46.8621 61.4384 47.7118 60.1734C48.5616 58.9084 49.087 57.4537 49.2419 55.9377C49.3968 54.4216 49.1764 52.8907 48.6 51.48V51.48Z" fill="#E53935"/>
<path d="M48.59 51.48C48.4304 51.0791 48.2399 50.6913 48.02 50.32L47.93 50.18C47.4938 49.4617 46.9623 48.8057 46.35 48.23L46.2 48.0901C45.8829 47.816 45.549 47.5622 45.2 47.33V47.33C44.8582 47.1043 44.5044 46.8973 44.14 46.7101L43.9 46.6C43.5379 46.4235 43.1636 46.2731 42.78 46.1501C42.3831 46.0309 41.979 45.9373 41.57 45.87L41.27 45.82C40.4276 45.7 39.5724 45.7 38.73 45.82L38.43 45.87C38.0209 45.9362 37.6167 46.0298 37.22 46.1501V46.1501C36.8364 46.2731 36.4622 46.4235 36.1 46.6L35.86 46.7101C35.4945 46.8951 35.1405 47.1021 34.8 47.33C34.4492 47.5595 34.1151 47.8135 33.8 48.0901L33.64 48.23C33.0309 48.806 32.5028 49.462 32.07 50.18L31.98 50.32C31.7609 50.6933 31.5671 51.0808 31.4 51.48H48.59V51.48Z" fill="white"/>
</svg>
