<svg width="80" height="80" viewBox="0 0 80 80" fill="none" xmlns="http://www.w3.org/2000/svg">
<path d="M80 40C80 47.9113 77.6541 55.6448 73.2588 62.2228C68.8636 68.8008 62.6164 73.9277 55.3074 76.9552C47.9983 79.9827 39.9556 80.7748 32.1964 79.2314C24.4372 77.688 17.3099 73.8784 11.7158 68.2843C6.12165 62.6902 2.31202 55.5629 0.768607 47.8036C-0.774802 40.0444 0.0173314 32.0017 3.04484 24.6927C6.07234 17.3836 11.1992 11.1365 17.7772 6.74122C24.3552 2.34596 32.0888 0 40 0C50.6087 0 60.7828 4.21427 68.2843 11.7157C75.7857 19.2172 80 29.3913 80 40Z" fill="#FFCA28"/>
<path d="M65.16 55.75C70.8706 55.75 75.5 51.1206 75.5 45.41C75.5 39.6994 70.8706 35.07 65.16 35.07C59.4494 35.07 54.82 39.6994 54.82 45.41C54.82 51.1206 59.4494 55.75 65.16 55.75Z" fill="#FFB300"/>
<path d="M14.84 55.75C20.5506 55.75 25.18 51.1206 25.18 45.41C25.18 39.6994 20.5506 35.07 14.84 35.07C9.12937 35.07 4.5 39.6994 4.5 45.41C4.5 51.1206 9.12937 55.75 14.84 55.75Z" fill="#FFB300"/>
<path d="M54.39 49C54.2995 48.7744 54.1642 48.5695 53.9923 48.3977C53.8205 48.2258 53.6156 48.0905 53.39 48C52.9524 47.8044 52.4592 47.7725 52 47.91C51.7468 47.9848 51.5123 48.1126 51.3123 48.2851C51.1123 48.4575 50.9513 48.6705 50.84 48.91C49.8042 50.8948 48.2442 52.5578 46.3295 53.7183C44.4149 54.8787 42.2189 55.4923 39.98 55.4923C37.7412 55.4923 35.5451 54.8787 33.6305 53.7183C31.7158 52.5578 30.1559 50.8948 29.12 48.91C29.0109 48.6708 28.8518 48.4578 28.6534 48.2853C28.455 48.1128 28.222 47.9849 27.97 47.91C27.5102 47.7785 27.019 47.8103 26.58 48C26.1286 48.1896 25.7696 48.5486 25.58 49C25.5021 49.2151 25.4682 49.4436 25.4802 49.6721C25.4922 49.9005 25.55 50.1243 25.65 50.33C27.0231 52.9416 29.0838 55.1283 31.6094 56.6538C34.135 58.1793 37.0295 58.9856 39.98 58.9856C42.9306 58.9856 45.825 58.1793 48.3506 56.6538C50.8762 55.1283 52.9369 52.9416 54.31 50.33C54.4145 50.1259 54.4755 49.9023 54.4893 49.6734C54.5031 49.4445 54.4693 49.2152 54.39 49V49Z" fill="#E53935"/>
<path d="M33.67 33.83C33.1396 33.83 32.6309 33.6193 32.2558 33.2442C31.8807 32.8692 31.67 32.3604 31.67 31.83C31.7052 30.9104 31.5544 29.9932 31.2268 29.1332C30.8991 28.2733 30.4014 27.4883 29.7632 26.8253C29.125 26.1622 28.3596 25.6348 27.5128 25.2745C26.666 24.9142 25.7553 24.7285 24.835 24.7285C23.9148 24.7285 23.0039 24.9142 22.1572 25.2745C21.3104 25.6348 20.545 26.1622 19.9068 26.8253C19.2687 27.4883 18.7708 28.2733 18.4432 29.1332C18.1156 29.9932 17.9648 30.9104 18 31.83C18 32.3604 17.7893 32.8692 17.4142 33.2442C17.0391 33.6193 16.5304 33.83 16 33.83C15.4696 33.83 14.9609 33.6193 14.5858 33.2442C14.2107 32.8692 14 32.3604 14 31.83C14.0856 29.0134 15.2646 26.3408 17.2872 24.3787C19.3099 22.4166 22.0171 21.3192 24.835 21.3192C27.6529 21.3192 30.3601 22.4166 32.3828 24.3787C34.4054 26.3408 35.5844 29.0134 35.67 31.83C35.67 32.3604 35.4593 32.8692 35.0842 33.2442C34.7091 33.6193 34.2004 33.83 33.67 33.83V33.83Z" fill="#263238"/>
<path d="M64 33.83C63.4696 33.83 62.9609 33.6193 62.5858 33.2442C62.2107 32.8692 62 32.3604 62 31.83C62.0352 30.9104 61.8845 29.9932 61.5568 29.1332C61.2292 28.2733 60.7314 27.4883 60.0932 26.8253C59.4551 26.1622 58.6896 25.6348 57.8428 25.2745C56.9961 24.9142 56.0853 24.7285 55.165 24.7285C54.2448 24.7285 53.334 24.9142 52.4872 25.2745C51.6404 25.6348 50.875 26.1622 50.2368 26.8253C49.5987 27.4883 49.1009 28.2733 48.7732 29.1332C48.4456 29.9932 48.2948 30.9104 48.33 31.83C48.33 32.3604 48.1193 32.8692 47.7442 33.2442C47.3692 33.6193 46.8605 33.83 46.33 33.83C45.7996 33.83 45.2909 33.6193 44.9158 33.2442C44.5407 32.8692 44.33 32.3604 44.33 31.83C44.4156 29.0134 45.5946 26.3408 47.6173 24.3787C49.6399 22.4166 52.3471 21.3192 55.165 21.3192C57.983 21.3192 60.6901 22.4166 62.7128 24.3787C64.7354 26.3408 65.9144 29.0134 66 31.83C66 32.3604 65.7893 32.8692 65.4142 33.2442C65.0392 33.6193 64.5304 33.83 64 33.83Z" fill="#263238"/>
</svg>
