<svg width="80" height="80" viewBox="0 0 80 80" fill="none" xmlns="http://www.w3.org/2000/svg">
<path d="M80 40C80 47.9113 77.654 55.6448 73.2588 62.2228C68.8635 68.8008 62.6164 73.9277 55.3073 76.9552C47.9983 79.9827 39.9557 80.7748 32.1964 79.2314C24.4372 77.688 17.3098 73.8784 11.7157 68.2843C6.1216 62.6902 2.31203 55.5629 0.768619 47.8036C-0.77479 40.0444 0.0172973 32.0017 3.0448 24.6927C6.07231 17.3836 11.1992 11.1365 17.7772 6.74122C24.3551 2.34596 32.0888 0 40 0C50.6087 0 60.7828 4.21427 68.2843 11.7157C75.7858 19.2172 80 29.3913 80 40Z" fill="#FFCA28"/>
<path d="M54.7599 61.92H25.2399C24.5299 61.92 23.96 60.92 23.96 59.63C23.96 58.34 24.5299 57.34 25.2399 57.34H54.7599C55.4699 57.34 56.0399 58.34 56.0399 59.63C56.0399 60.92 55.4699 61.92 54.7599 61.92Z" fill="#E53935"/>
<path d="M67.5 29.2C67.5 31.3993 66.8478 33.5493 65.6259 35.3779C64.404 37.2066 62.6674 38.6319 60.6354 39.4735C58.6035 40.3152 56.3676 40.5354 54.2106 40.1063C52.0535 39.6773 50.0721 38.6182 48.517 37.063C46.9618 35.5079 45.9028 33.5265 45.4737 31.3694C45.0446 29.2123 45.2648 26.9765 46.1064 24.9445C46.9481 22.9126 48.3734 21.1759 50.2021 19.954C52.0308 18.7322 54.1807 18.08 56.38 18.08C57.8407 18.0787 59.2873 18.3654 60.637 18.9238C61.9868 19.4821 63.2131 20.3012 64.246 21.334C65.2788 22.3669 66.0978 23.5933 66.6562 24.943C67.2146 26.2927 67.5013 27.7393 67.5 29.2" fill="white"/>
<path d="M57.37 24.66C57.372 25.6038 57.094 26.527 56.571 27.3128C56.0481 28.0985 55.3038 28.7115 54.4324 29.074C53.5609 29.4366 52.6015 29.5325 51.6756 29.3496C50.7496 29.1666 49.8988 28.7131 49.2307 28.0464C48.5626 27.3797 48.1073 26.5298 47.9225 25.6043C47.7376 24.6787 47.8315 23.7191 48.1922 22.8469C48.5529 21.9747 49.1643 21.2292 49.949 20.7046C50.7336 20.18 51.6562 19.9 52.6 19.9C53.8634 19.9 55.0752 20.4012 55.9694 21.2936C56.8637 22.1859 57.3674 23.3966 57.37 24.66" fill="#263238"/>
<path d="M34.73 29.2C34.73 31.3997 34.0775 33.5501 32.8552 35.379C31.6329 37.2079 29.8956 38.6331 27.8631 39.4745C25.8306 40.3158 23.5942 40.5355 21.4369 40.1056C19.2795 39.6757 17.2982 38.6156 15.7434 37.0595C14.1886 35.5033 13.1304 33.521 12.7024 31.3633C12.2745 29.2055 12.4962 26.9694 13.3393 24.9376C14.1825 22.9059 15.6093 21.1699 17.4393 19.9492C19.2693 18.7285 21.4202 18.078 23.62 18.08C25.0802 18.0787 26.5263 18.3655 27.8755 18.924C29.2246 19.4825 30.4504 20.3016 31.4824 21.3346C32.5145 22.3676 33.3325 23.5941 33.8898 24.9437C34.4471 26.2934 34.7326 27.7398 34.73 29.2" fill="white"/>
<path d="M24.6 24.66C24.602 25.6038 24.3239 26.5271 23.801 27.3128C23.2781 28.0985 22.5338 28.7115 21.6624 29.074C20.791 29.4366 19.8316 29.5325 18.9056 29.3496C17.9797 29.1666 17.1288 28.7131 16.4607 28.0464C15.7926 27.3797 15.3373 26.5298 15.1525 25.6043C14.9676 24.6787 15.0614 23.7191 15.4222 22.8469C15.7829 21.9747 16.3943 21.2292 17.1789 20.7046C17.9636 20.18 18.8862 19.9 19.8301 19.9C20.456 19.8987 21.0761 20.0208 21.6547 20.2595C22.2334 20.4981 22.7593 20.8485 23.2023 21.2906C23.6454 21.7328 23.9969 22.258 24.2367 22.8361C24.4766 23.4143 24.6 24.0341 24.6 24.66" fill="#263238"/>
</svg>
