<svg width="121" height="220" viewBox="0 0 121 220" fill="none" xmlns="http://www.w3.org/2000/svg">
<path d="M68.1791 3.7131L115.836 56.243C124.929 66.2661 118.495 83.4269 105.627 83.4269L76.5561 83.4269C74.393 83.4269 72.6293 85.3555 72.6293 87.755L72.6293 138.265C72.6293 145.919 66.9944 152.13 60.0366 152.13C53.0927 152.13 47.4576 145.919 47.4576 138.265L47.4576 87.755C47.4576 85.3555 45.6939 83.4269 43.5308 83.4269L14.46 83.4269C1.60544 83.4269 -4.84254 66.2661 4.26449 56.243L51.9216 3.7131C56.4131 -1.23768 63.6876 -1.23768 68.1791 3.7131Z" fill="white"/>
<path d="M60.0365 219.528C53.0926 219.528 47.4575 213.317 47.4575 205.663L47.4575 189.671C47.4575 182.002 53.0926 175.791 60.0365 175.791C66.9943 175.791 72.6292 182.002 72.6292 189.671L72.6292 205.663C72.6292 213.317 66.9943 219.528 60.0365 219.528Z" fill="white"/>
</svg>
