<svg width="90" height="90" viewBox="0 0 90 90" fill="none" xmlns="http://www.w3.org/2000/svg">
<path d="M11.25 13.5C11.25 12.2574 12.2574 11.25 13.5 11.25H76.5C77.7427 11.25 78.75 12.2574 78.75 13.5V65.25C78.75 66.4928 77.7427 67.5 76.5 67.5H60.972C60.3517 67.5 59.7589 67.7561 59.3336 68.208L46.6384 81.6968C45.75 82.6406 44.25 82.6406 43.3616 81.6968L30.6663 68.208C30.2411 67.7561 29.6482 67.5 29.0278 67.5H13.5C12.2574 67.5 11.25 66.4928 11.25 65.25V13.5Z" fill="#AB7D7D"/>
<path d="M45 26L50.3452 35.6546L60 41L50.3452 46.3452L45 56L39.6548 46.3452L30 41L39.6548 35.6546L45 26Z" fill="#86FFFF"/>
</svg>
