<svg width="90" height="90" viewBox="0 0 90 90" fill="none" xmlns="http://www.w3.org/2000/svg">
<path d="M60 12.5V20H82.5V46.6377V54.5965V70H60V77.5H90V12.5H60Z" fill="#906565"/>
<path d="M60 12.5H30V20H60V12.5Z" fill="#C78484"/>
<path d="M37.9375 70H30V77.5H60V70H37.9375Z" fill="#C78484"/>
<path d="M7.5 70V27.959V20H30V12.5H0V77.5H30V70H7.5Z" fill="#906565"/>
<path d="M33.75 41.25C33.75 39.9382 33.9767 38.68 34.3895 37.5093L7.5 27.959V70H30L36.8338 50.2752C35.0843 47.4247 33.75 44.2635 33.75 41.25Z" fill="#764949"/>
<path d="M45 60C45 60 43.8682 58.9935 42.3232 57.3413L37.9375 70H60H82.5V54.5965L55.6237 45.051C53.2592 52.6577 45 60 45 60Z" fill="#764949"/>
<path d="M36.8338 50.2753L30 70H37.9375L42.3232 57.3413C40.6737 55.5773 38.5535 53.077 36.8338 50.2753Z" fill="#86FFFF"/>
<path d="M7.5 20L39.577 31.3928C41.1855 30.5058 43.0335 30 45 30C49.717 30 53.7538 32.9045 55.4253 37.0215L82.5 46.6378V20H60H30H7.5Z" fill="#86FFFF"/>
<path d="M39.577 31.3927L7.5 20V27.959L34.3895 37.5092C35.3127 34.8902 37.1765 32.716 39.577 31.3927Z" fill="white"/>
<path d="M56.25 41.25C56.25 42.5025 56.0188 43.7803 55.6238 45.051L82.5 54.5965V46.6378L55.4253 37.0218C55.9555 38.3275 56.25 39.754 56.25 41.25Z" fill="white"/>
<path d="M34.3895 37.5093C33.9767 38.68 33.75 39.9382 33.75 41.25C33.75 44.2635 35.0843 47.4247 36.8338 50.2752C38.5535 53.0772 40.6737 55.5772 42.3232 57.3415C43.8682 58.9935 45 60 45 60V45C42.929 45 41.25 43.321 41.25 41.25C41.25 39.179 42.929 37.5 45 37.5V30C43.0335 30 41.1855 30.5057 39.577 31.3927C37.1765 32.716 35.3127 34.8903 34.3895 37.5093Z" fill="#FF5023"/>
<path d="M48.75 41.25C48.75 43.321 47.071 45 45 45V60C45 60 53.2592 52.6577 55.6237 45.051C56.0187 43.7802 56.25 42.5025 56.25 41.25C56.25 39.754 55.9555 38.3275 55.4253 37.0215C53.7538 32.9045 49.717 30 45 30V37.5C47.071 37.5 48.75 39.179 48.75 41.25Z" fill="#BF3C1A"/>
<path d="M45 45C47.0711 45 48.75 43.3211 48.75 41.25C48.75 39.1789 47.0711 37.5 45 37.5C42.9289 37.5 41.25 39.1789 41.25 41.25C41.25 43.3211 42.9289 45 45 45Z" fill="white"/>
</svg>
