<svg width="100" height="100" viewBox="0 0 100 100" fill="none" xmlns="http://www.w3.org/2000/svg">
<g clip-path="url(#clip0_11_35)">
<path d="M46.6668 0C22.4053 0 2.66679 19.7385 2.66679 44C2.66679 68.2615 22.4053 88 46.6668 88C48.8758 88 50.6668 86.209 50.6668 84C50.6668 81.791 48.8758 80 46.6668 80C26.8162 80 10.6668 63.8504 10.6668 44C10.6668 24.1496 26.8162 8 46.6668 8C48.8758 8 50.6668 6.20899 50.6668 4C50.6668 1.79102 48.8758 0 46.6668 0Z" fill="#906565"/>
<path d="M72.064 99.0377C72.8181 99.6842 73.7437 100 74.6648 100C75.7924 100 76.9131 99.5258 77.7041 98.6027L84.5047 90.6656L93.3334 90.665C95.5424 90.665 97.3332 88.8738 97.3332 86.6648C97.3332 84.4559 95.542 82.665 93.333 82.665L67.598 82.6666L64.7633 77.942C63.6267 76.0479 61.1693 75.4332 59.2752 76.5699C57.3808 77.7064 56.7666 80.1635 57.9031 82.058L61.9031 88.7246C62.626 89.9295 63.9281 90.6664 65.3332 90.6664L73.9689 90.6658L71.6289 93.3971C70.1918 95.075 70.3865 97.6002 72.064 99.0377Z" fill="#86FFFF"/>
<path d="M46.6668 16C31.2273 16 18.6668 28.5607 18.6668 44C18.6668 59.4393 31.2273 72 46.6668 72C62.1063 72 74.6668 59.4395 74.6668 44C74.6668 28.5605 62.1061 16 46.6668 16Z" fill="#906565"/>
<path d="M27.0695 48H34.7703C35.0226 52.8496 35.742 57.5465 36.9642 61.4805C31.9476 58.6848 28.2502 53.7957 27.0695 48Z" fill="#906565"/>
<path d="M34.7703 40H27.0695C28.2506 34.2043 31.9476 29.3152 36.9642 26.5195C35.7418 30.4535 35.0225 35.1504 34.7703 40Z" fill="#906565"/>
<path d="M46.6668 63.6371C45.3758 61.9975 43.2908 56.6797 42.782 48H50.5519C50.0428 56.6797 47.9578 61.9973 46.6668 63.6371Z" fill="white"/>
<path d="M42.782 40C43.2908 31.3203 45.3762 26.0027 46.6668 24.3629C47.9578 26.0025 50.0428 31.3203 50.5515 40H42.782Z" fill="white"/>
<path d="M56.3695 61.4805C57.592 57.5463 58.3111 52.8492 58.5635 48H66.2642C65.083 53.7957 61.3859 58.6848 56.3695 61.4805Z" fill="white"/>
<path d="M58.5633 40C58.3109 35.1504 57.5918 30.4535 56.3693 26.5195C61.3861 29.3152 65.0832 34.2043 66.264 40H58.5633Z" fill="white"/>
<path d="M46.6668 63.6371V48H42.782C43.2908 56.6797 45.3758 61.9973 46.6668 63.6371Z" fill="white"/>
<path d="M27.0695 40H34.7703C35.0226 35.1504 35.742 30.4535 36.9642 26.5195C31.9476 29.3152 28.2502 34.2043 27.0695 40Z" fill="white"/>
<path d="M46.6668 40V24.3629C45.3758 26.0025 43.2908 31.3203 42.782 40H46.6668Z" fill="white"/>
<path d="M27.0695 48C28.2506 53.7957 31.9476 58.6848 36.9642 61.4805C35.7418 57.5463 35.0226 52.8492 34.7703 48H27.0695Z" fill="white"/>
<path d="M46.6668 8C48.8758 8 50.6668 6.20898 50.6668 4C50.6668 1.79102 48.8758 0 46.6668 0C22.4228 0 2.69609 19.7096 2.66757 43.9473H10.6676C10.6961 24.1207 26.834 8 46.6668 8Z" fill="#BF8787"/>
</g>
<defs>
<clipPath id="clip0_11_35">
<rect width="100" height="100" fill="white"/>
</clipPath>
</defs>
</svg>
