<svg width="1174" height="671" viewBox="0 0 1174 671" fill="none" xmlns="http://www.w3.org/2000/svg">
<path opacity="0.278" d="M895.14 456.7C895.14 519.71 877.78 578.67 847.58 629.03H271.6C241.38 578.67 224.02 519.71 224.02 456.7C224.02 271.37 374.26 121.15 559.57 121.15C744.9 121.15 895.14 271.37 895.14 456.7Z" fill="#4FD1D9"/>
<path d="M385.76 214.89H203.48C196.22 214.89 190.34 209.01 190.34 201.76C190.34 194.5 196.22 188.62 203.48 188.62H385.76C393.02 188.62 398.9 194.5 398.9 201.76C398.9 209.01 393.02 214.89 385.76 214.89Z" fill="white"/>
<path d="M790.87 172.68H608.58C601.33 172.68 595.45 166.8 595.45 159.54C595.45 152.29 601.33 146.41 608.58 146.41H790.87C798.12 146.41 804.01 152.29 804.01 159.54C804.01 166.8 798.12 172.68 790.87 172.68Z" fill="white"/>
<path d="M953.05 365.52H770.77C763.52 365.52 757.63 359.63 757.63 352.38C757.63 345.12 763.52 339.24 770.77 339.24H953.05C960.31 339.24 966.19 345.12 966.19 352.38C966.19 359.63 960.31 365.52 953.05 365.52Z" fill="white"/>
<path d="M1029.26 407.33H846.98C839.72 407.33 833.84 401.45 833.84 394.19C833.84 386.94 839.72 381.05 846.98 381.05H1029.26C1036.52 381.05 1042.4 386.94 1042.4 394.19C1042.4 401.45 1036.52 407.33 1029.26 407.33Z" fill="white"/>
<path d="M397.97 337.84H215.69C208.43 337.84 202.55 331.96 202.55 324.71C202.55 317.45 208.43 311.57 215.69 311.57H397.97C405.23 311.57 411.11 317.45 411.11 324.71C411.11 331.96 405.23 337.84 397.97 337.84Z" fill="white"/>
<path d="M881.15 621.96C879.93 624.33 878.68 626.69 877.41 629.03H869.41" stroke="#4FD1D9" stroke-width="4" stroke-linecap="round"/>
<path d="M853.52 629.03H257.68" stroke="#4FD1D9" stroke-width="4" stroke-linecap="round" stroke-dasharray="16 16"/>
<path d="M249.74 629.03H241.74C240.46 626.69 239.22 624.33 238 621.96" stroke="#4FD1D9" stroke-width="4" stroke-linecap="round" stroke-dasharray="16 16"/>
<path d="M231.03 607.67C209.89 561.73 198.1 510.6 198.1 456.7C198.1 257.06 359.93 95.21 559.57 95.21C759.22 95.21 921.07 257.06 921.07 456.7C921.07 513.42 908 567.08 884.72 614.85" stroke="#4FD1D9" stroke-width="4" stroke-linecap="round" stroke-dasharray="16 16"/>
<path d="M170.35 213.21L152.36 231.2" stroke="#4FD1D9" stroke-width="4" stroke-linecap="round" stroke-dasharray="16 16"/>
<path d="M152.36 213.21L170.35 231.2" stroke="#4FD1D9" stroke-width="4" stroke-linecap="round" stroke-dasharray="16 16"/>
<path d="M19.99 580.35L2 598.34" stroke="#4FD1D9" stroke-width="4" stroke-linecap="round" stroke-dasharray="16 16"/>
<path d="M2 580.35L19.99 598.34" stroke="#4FD1D9" stroke-width="4" stroke-linecap="round" stroke-dasharray="16 16"/>
<path d="M488.77 169.64L470.78 187.63" stroke="#4FD1D9" stroke-width="4" stroke-linecap="round" stroke-dasharray="16 16"/>
<path d="M470.78 169.64L488.77 187.63" stroke="#4FD1D9" stroke-width="4" stroke-linecap="round" stroke-dasharray="16 16"/>
<path d="M1035.39 521.73L1017.4 539.72" stroke="#4FD1D9" stroke-width="4" stroke-linecap="round" stroke-dasharray="16 16"/>
<path d="M1017.4 521.73L1035.39 539.72" stroke="#4FD1D9" stroke-width="4" stroke-linecap="round" stroke-dasharray="16 16"/>
<path d="M1012.84 213.21L994.85 231.2" stroke="#4FD1D9" stroke-width="4" stroke-linecap="round" stroke-dasharray="16 16"/>
<path d="M994.85 213.21L1012.84 231.2" stroke="#4FD1D9" stroke-width="4" stroke-linecap="round" stroke-dasharray="16 16"/>
<path d="M846.41 103.45L828.42 121.44" stroke="#4FD1D9" stroke-width="4" stroke-linecap="round" stroke-dasharray="16 16"/>
<path d="M828.42 103.45L846.41 121.44" stroke="#4FD1D9" stroke-width="4" stroke-linecap="round" stroke-dasharray="16 16"/>
<path d="M92.13 350.55C92.13 356.79 87.06 361.85 80.82 361.85C74.58 361.85 69.51 356.79 69.51 350.55C69.51 344.3 74.58 339.24 80.82 339.24C87.06 339.24 92.13 344.3 92.13 350.55Z" stroke="#4FD1D9" stroke-width="4" stroke-linecap="round" stroke-dasharray="16 16"/>
<path d="M143.52 499.21C148.21 503.33 148.67 510.47 144.55 515.16C140.42 519.85 133.28 520.31 128.59 516.19C123.9 512.07 123.44 504.93 127.56 500.24C131.68 495.55 138.83 495.09 143.52 499.21Z" stroke="#4FD1D9" stroke-width="4" stroke-linecap="round" stroke-dasharray="16 16"/>
<path d="M1171.28 600.65C1171.28 606.9 1166.22 611.96 1159.97 611.96C1153.73 611.96 1148.67 606.9 1148.67 600.65C1148.67 594.41 1153.73 589.35 1159.97 589.35C1166.22 589.35 1171.28 594.41 1171.28 600.65Z" stroke="#4FD1D9" stroke-width="4" stroke-linecap="round" stroke-dasharray="16 16"/>
<path d="M727.21 209.15C727.21 215.39 722.15 220.46 715.91 220.46C709.66 220.46 704.6 215.39 704.6 209.15C704.6 202.91 709.66 197.84 715.91 197.84C722.15 197.84 727.21 202.91 727.21 209.15Z" stroke="#4FD1D9" stroke-width="4" stroke-linecap="round" stroke-dasharray="16 16"/>
<path d="M444.89 13.31C444.89 19.55 439.83 24.62 433.59 24.62C427.34 24.62 422.28 19.55 422.28 13.31C422.28 7.06 427.34 2 433.59 2C439.83 2 444.89 7.06 444.89 13.31Z" stroke="#4FD1D9" stroke-width="4" stroke-linecap="round" stroke-dasharray="16 16"/>
<path d="M997.6 397.33C997.6 403.57 992.53 408.63 986.29 408.63C980.05 408.63 974.98 403.57 974.98 397.33C974.98 391.08 980.05 386.02 986.29 386.02C992.53 386.02 997.6 391.08 997.6 397.33Z" stroke="#4FD1D9" stroke-width="4" stroke-linecap="round" stroke-dasharray="16 16"/>
<g opacity="0.478">
<path opacity="0.478" fill-rule="evenodd" clip-rule="evenodd" d="M715.91 483.15C715.91 485.88 715.01 488.16 713.22 490.01C711.43 491.85 708.83 492.77 705.44 492.77H700.33V507.21C700.33 515.08 696.31 519.01 688.25 519.01C681.45 519.01 678.05 514.76 678.05 506.25V492.77H633.21C622.83 492.77 617.64 489.97 617.64 484.35C617.64 482.11 618.49 479.58 620.19 476.77C621.89 473.96 623.28 471.76 624.35 470.15L659.79 415.28C662.66 411.27 665.66 408.3 668.79 406.37C671.92 404.45 675.54 403.48 679.66 403.48C686.28 403.48 691.38 405.17 694.97 408.54C698.54 411.91 700.33 417.53 700.33 425.39V473.52H705.44C708.83 473.52 711.43 474.48 713.22 476.41C715.01 478.33 715.91 480.58 715.91 483.15ZM678.05 473.52V423.94L646.91 473.52H678.05Z" fill="#4FD1D9"/>
<path opacity="0.478" fill-rule="evenodd" clip-rule="evenodd" d="M467.9 483.15C467.9 485.88 467 488.16 465.21 490.01C463.42 491.85 460.83 492.77 457.43 492.77H452.33V507.21C452.33 515.08 448.3 519.01 440.24 519.01C433.44 519.01 430.04 514.76 430.04 506.25V492.77H385.21C374.82 492.77 369.63 489.97 369.63 484.35C369.63 482.11 370.48 479.58 372.19 476.77C373.88 473.96 375.27 471.76 376.35 470.15L411.79 415.28C414.65 411.27 417.65 408.3 420.78 406.37C423.91 404.45 427.53 403.48 431.65 403.48C438.27 403.48 443.37 405.17 446.96 408.54C450.53 411.91 452.33 417.53 452.33 425.39V473.52H457.43C460.83 473.52 463.42 474.48 465.21 476.41C467 478.33 467.9 480.58 467.9 483.15ZM430.04 473.52V423.94L398.9 473.52H430.04Z" fill="#4FD1D9"/>
<path opacity="0.478" fill-rule="evenodd" clip-rule="evenodd" d="M592.85 454.03V468.73C592.85 471.09 590.93 473.01 588.56 473.01H581.43C580.27 477.65 578.44 482.02 576.04 486.01L581.09 491.05C582.77 492.73 582.77 495.44 581.09 497.12L570.7 507.51C569.03 509.19 566.31 509.19 564.64 507.51L559.59 502.46C555.6 504.86 551.23 506.69 546.6 507.85V514.98C546.6 517.35 544.68 519.27 542.31 519.27H527.61C525.24 519.27 523.32 517.35 523.32 514.98V507.85C518.69 506.69 514.32 504.86 510.33 502.46L505.28 507.51C503.61 509.19 500.89 509.19 499.22 507.51L488.83 497.12C487.15 495.44 487.15 492.73 488.83 491.05L493.88 486.01C491.48 482.02 489.65 477.65 488.49 473.01H481.36C478.99 473.01 477.07 471.09 477.07 468.73V454.03C477.07 451.66 478.99 449.74 481.36 449.74H488.49C489.65 445.11 491.48 440.74 493.88 436.75L488.83 431.7C487.15 430.03 487.15 427.31 488.83 425.64L499.22 415.25C500.89 413.57 503.61 413.57 505.28 415.25L510.33 420.29C514.32 417.9 518.69 416.07 523.32 414.91V407.77C523.32 405.4 525.24 403.48 527.61 403.48H542.31C544.68 403.48 546.6 405.4 546.6 407.77V414.91C551.23 416.07 555.6 417.9 559.59 420.29L564.64 415.25C566.31 413.57 569.03 413.57 570.7 415.25L581.09 425.64C582.77 427.31 582.77 430.03 581.09 431.7L576.04 436.75C578.44 440.74 580.27 445.11 581.43 449.74H588.56C590.93 449.74 592.85 451.66 592.85 454.03ZM563.95 461.38C563.95 445.37 550.97 432.39 534.96 432.39C518.95 432.39 505.97 445.37 505.97 461.38C505.97 477.39 518.95 490.37 534.96 490.37C550.97 490.37 563.95 477.39 563.95 461.38Z" fill="#4FD1D9"/>
<path opacity="0.478" fill-rule="evenodd" clip-rule="evenodd" d="M639.32 416.89L638.64 424.59C638.53 425.83 637.43 426.75 636.19 426.64L632.45 426.31C631.63 428.68 630.47 430.88 629.03 432.86L631.43 435.74C632.23 436.7 632.11 438.12 631.15 438.92L625.22 443.88C624.27 444.68 622.85 444.56 622.05 443.6L619.64 440.72C617.43 441.79 615.06 442.54 612.58 442.94L612.25 446.67C612.14 447.92 611.04 448.83 609.8 448.72L602.1 448.04C600.86 447.93 599.94 446.83 600.05 445.59L600.38 441.85C598.01 441.03 595.81 439.87 593.83 438.43L590.95 440.84C589.99 441.64 588.57 441.51 587.77 440.55L582.81 434.62C582.01 433.67 582.14 432.25 583.09 431.45L585.97 429.04C584.9 426.84 584.15 424.46 583.76 421.98L580.02 421.65C578.78 421.54 577.86 420.44 577.97 419.2L578.65 411.5C578.76 410.26 579.86 409.34 581.1 409.45L584.84 409.79C585.66 407.41 586.82 405.21 588.26 403.23L585.85 400.35C585.05 399.39 585.18 397.97 586.14 397.17L592.07 392.21C593.02 391.41 594.44 391.54 595.24 392.49L597.65 395.37C599.86 394.3 602.23 393.55 604.71 393.16L605.04 389.42C605.15 388.18 606.25 387.26 607.49 387.37L615.19 388.05C616.43 388.16 617.35 389.26 617.24 390.5L616.91 394.24C619.28 395.06 621.48 396.22 623.46 397.67L626.34 395.26C627.3 394.46 628.72 394.58 629.52 395.54L634.48 401.47C635.28 402.42 635.15 403.85 634.2 404.64L631.32 407.05C632.39 409.26 633.14 411.63 633.53 414.11L637.27 414.44C638.51 414.55 639.43 415.65 639.32 416.89ZM623.83 419.4C624.58 411.01 618.38 403.6 609.99 402.86C601.61 402.11 594.2 408.31 593.45 416.7C592.71 425.09 598.91 432.49 607.29 433.24C615.68 433.98 623.09 427.78 623.83 419.4Z" fill="#4FD1D9"/>
</g>
<path d="M406.71 476.24L437.85 426.67V476.24H406.71Z" stroke="#4FD1D9" stroke-width="4" stroke-dasharray="16 16"/>
<path d="M542.77 492.83C526.76 492.83 513.78 479.85 513.78 463.84C513.78 447.83 526.76 434.85 542.77 434.85C558.78 434.85 571.76 447.83 571.76 463.84C571.76 479.85 558.78 492.83 542.77 492.83Z" stroke="#4FD1D9" stroke-width="4" stroke-dasharray="16 16"/>
<path fill-rule="evenodd" clip-rule="evenodd" d="M647.13 419.62L646.45 427.32C646.34 428.56 645.24 429.47 644 429.36L640.26 429.03C639.44 431.41 638.28 433.61 636.84 435.59L639.25 438.47C640.04 439.42 639.92 440.85 638.96 441.65L633.03 446.61C632.08 447.41 630.66 447.28 629.86 446.32L627.45 443.44C625.24 444.51 622.87 445.27 620.39 445.66L620.06 449.4C619.95 450.64 618.85 451.56 617.61 451.45L609.91 450.76C608.67 450.65 607.75 449.56 607.86 448.32L608.19 444.58C605.82 443.75 603.62 442.59 601.64 441.15L598.76 443.56C597.8 444.36 596.38 444.23 595.58 443.28L590.62 437.35C589.82 436.39 589.95 434.97 590.9 434.17L593.78 431.76C592.71 429.56 591.96 427.19 591.57 424.7L587.83 424.37C586.59 424.26 585.67 423.17 585.78 421.93L586.46 414.22C586.57 412.98 587.67 412.07 588.91 412.18L592.65 412.51C593.47 410.14 594.63 407.93 596.07 405.95L593.66 403.07C592.87 402.12 592.99 400.7 593.95 399.9L599.88 394.93C600.83 394.13 602.25 394.26 603.05 395.22L605.46 398.1C607.67 397.03 610.04 396.27 612.52 395.88L612.85 392.14C612.96 390.9 614.06 389.98 615.3 390.09L623 390.78C624.24 390.89 625.16 391.98 625.05 393.23L624.72 396.96C627.09 397.79 629.29 398.95 631.27 400.39L634.15 397.98C635.11 397.18 636.53 397.31 637.33 398.26L642.29 404.19C643.09 405.15 642.96 406.57 642.01 407.37L639.13 409.78C640.2 411.98 640.95 414.35 641.34 416.84L645.08 417.17C646.32 417.28 647.24 418.37 647.13 419.62ZM631.64 422.12C632.39 413.73 626.19 406.33 617.8 405.58C609.42 404.83 602.01 411.03 601.27 419.42C600.52 427.81 606.72 435.21 615.11 435.96C623.49 436.71 630.9 430.51 631.64 422.12Z" stroke="#4FD1D9" stroke-width="4" stroke-dasharray="16 16"/>
<path fill-rule="evenodd" clip-rule="evenodd" d="M325.53 521.73C377.41 521.73 409.89 521.73 422.98 521.73C436.8 521.73 437.85 517.48 437.85 508.98V495.5H393.02C382.63 495.5 377.44 492.69 377.44 487.07C377.44 484.83 378.29 482.3 380 479.49C381.69 476.69 383.08 474.48 384.16 472.88L419.6 418C422.46 413.99 425.46 411.02 428.59 409.1C431.72 407.17 435.34 406.21 439.46 406.21C446.08 406.21 451.18 407.89 454.77 411.26C458.34 414.63 460.14 420.25 460.14 428.11V476.24H465.24C468.64 476.24 471.23 477.21 473.02 479.13C474.81 481.06 475.71 483.31 475.71 485.87C475.71 488.6 474.81 490.89 473.02 492.73C471.23 494.58 468.64 495.5 465.24 495.5H460.14V509.94C460.14 517.8 462.23 521.73 472.28 521.73H522.98C527.36 521.73 531.13 520.89 531.13 517.44V510.31C526.5 509.15 522.13 507.32 518.14 504.92L513.09 509.97C511.42 511.65 508.7 511.65 507.03 509.97L496.64 499.58C494.96 497.9 494.96 495.19 496.64 493.51L501.69 488.47C499.29 484.48 497.46 480.11 496.3 475.47H489.17C486.8 475.47 484.88 473.55 484.88 471.19V456.49C484.88 454.12 486.8 452.2 489.17 452.2H496.3C497.46 447.57 499.29 443.2 501.69 439.21L496.64 434.16C494.96 432.49 494.96 429.77 496.64 428.1L507.03 417.7C508.7 416.03 511.42 416.03 513.09 417.7L518.14 422.75C522.13 420.36 526.5 418.53 531.13 417.37V410.23C531.13 407.86 533.05 405.94 535.42 405.94H550.12C552.49 405.94 554.41 407.86 554.41 410.23V417.37C559.04 418.53 563.41 420.36 567.4 422.75L572.45 417.7C574.12 416.03 576.84 416.03 578.51 417.7L588.9 428.1C590.58 429.77 590.58 432.49 588.9 434.16L583.86 439.21C586.25 443.2 588.08 447.57 589.24 452.2H596.38C598.74 452.2 600.66 454.12 600.66 456.49V471.19C600.66 473.55 598.74 475.47 596.38 475.47H589.24C588.08 480.11 586.25 484.48 583.86 488.47L588.9 493.51C590.58 495.19 590.58 497.9 588.9 499.58L578.51 509.97C576.84 511.65 574.12 511.65 572.45 509.97L567.4 504.92C563.41 507.32 559.04 509.15 554.41 510.31V517.44C554.41 519.81 555.54 521.73 559.51 521.73C591.71 521.73 657.7 521.73 670.79 521.73C684.62 521.73 685.67 517.48 685.67 508.98V495.5H640.83C630.45 495.5 625.26 492.69 625.26 487.07C625.26 484.83 626.11 482.3 627.81 479.49C629.51 476.69 630.9 474.48 631.97 472.88L667.41 418C670.27 413.99 673.27 411.02 676.41 409.1C679.54 407.17 683.16 406.21 687.28 406.21C693.9 406.21 699 407.89 702.58 411.26C706.16 414.63 707.95 420.25 707.95 428.11V476.24H713.05C716.45 476.24 719.05 477.21 720.84 479.13C722.63 481.06 723.52 483.31 723.52 485.87C723.52 488.6 722.63 490.89 720.84 492.73C719.05 494.58 716.45 495.5 713.05 495.5H707.95V509.94C707.95 517.8 710.05 521.73 720.1 521.73H793.62H325.53ZM685.67 476.24V426.67L654.52 476.24H685.67Z" stroke="#4FD1D9" stroke-width="4" stroke-dasharray="16 16"/>
<path d="M837.41 629.02H281.75V279.8C281.75 265.95 292.98 254.72 306.83 254.72H812.33C826.18 254.72 837.41 265.95 837.41 279.8V629.02Z" stroke="#4FD1D9" stroke-width="4" stroke-dasharray="16 16"/>
<path d="M812.33 605.29H306.83V278.07H812.33V605.29Z" stroke="#4FD1D9" stroke-width="4" stroke-dasharray="16 16"/>
<path d="M905.13 653.34H214.03V629.02H905.13V653.34Z" stroke="#4FD1D9" stroke-width="4" stroke-dasharray="16 16"/>
<path d="M874.51 668.92H244.65C237.77 668.92 231.08 666.62 225.65 662.39L214.03 653.34H905.13L893.51 662.39C888.08 666.62 881.39 668.92 874.51 668.92Z" stroke="#4FD1D9" stroke-width="4" stroke-linejoin="round" stroke-dasharray="16 16"/>
</svg>
