<svg width="446" height="446" viewBox="0 0 446 446" fill="none" xmlns="http://www.w3.org/2000/svg">
<path d="M445.51 222.74C445.51 272.74 429.05 318.88 401.28 356.04C398.77 359.4 396.15 362.69 393.44 365.89C391.93 367.72 390.38 369.51 388.79 371.28C387.39 372.85 385.96 374.4 384.51 375.92C343.92 418.79 286.47 445.51 222.78 445.51C159.1 445.51 101.64 418.79 61.04 375.94C61.04 375.92 61.04 375.92 61.02 375.92C60.98 375.88 60.94 375.84 60.9 375.8C57.85 372.59 54.89 369.29 52.04 365.89C49.34 362.69 46.75 359.4 44.23 356.04C16.47 318.88 0 272.74 0 222.74C0 99.73 99.73 0 222.78 0C345.79 0 445.51 99.73 445.51 222.74Z" fill="#C5E4F7"/>
<path d="M384.55 375.82C384.55 375.84 384.53 375.88 384.49 375.95L384.46 375.98C384.07 376.4 383.67 376.83 383.24 377.23C382.48 378.05 381.71 378.85 380.89 379.67C380.37 380.19 379.82 380.74 379.27 381.26C378.48 382.08 377.65 382.85 376.86 383.61C376.31 384.16 375.76 384.68 375.18 385.2C374.39 385.96 373.56 386.72 372.74 387.49C359.64 399.42 345.11 409.8 329.45 418.35C324.41 421.1 319.25 423.66 314 426.01C290.61 436.55 265.09 443.14 238.29 444.97C233.16 445.34 228 445.52 222.78 445.52C217.53 445.52 212.34 445.34 207.18 444.97C181.78 443.23 157.57 437.22 135.22 427.66C133.97 427.11 132.72 426.59 131.49 426.01C109.88 416.31 90.1 403.21 72.79 387.45C71.96 386.72 71.1399 385.96 70.3099 385.17C69.7599 384.68 69.18 384.13 68.66 383.61C67.84 382.85 67.0199 382.05 66.2499 381.26C65.6999 380.74 65.15 380.19 64.6 379.67C63.84 378.85 63.0199 378.05 62.2499 377.23C61.8299 376.8 61.43 376.37 61.03 375.95C61.03 375.95 61.0199 375.95 60.9999 375.95C60.9799 375.88 60.9599 375.84 60.9399 375.82L83.3799 344.04C88.9699 336.13 96.9699 330.36 106.19 327.56C106.25 327.5 106.34 327.5 106.4 327.46C110.61 326.18 115.65 324.72 121.24 323.19C131.07 320.41 142.67 317.39 154.88 314.58C177.78 309.36 202.87 304.96 222.72 304.93H222.81C242.65 304.96 267.75 309.36 290.61 314.58C302.86 317.39 314.46 320.44 324.29 323.19C329.88 324.75 334.85 326.18 339.1 327.46C339.16 327.5 339.25 327.53 339.34 327.56C344.53 329.14 349.32 331.65 353.51 334.97C354.42 335.68 355.31 336.44 356.16 337.2C358.36 339.25 360.34 341.54 362.11 344.04L384.55 375.82Z" fill="#A42B66"/>
<path d="M238.29 444.97C233.16 445.34 228 445.52 222.78 445.52C217.53 445.52 212.34 445.34 207.18 444.97L214.72 394.69H230.56L238.29 444.97Z" fill="#3C1644"/>
<path d="M232.72 393.59H213.73C212.14 393.59 210.78 392.46 210.53 390.93L207.67 373.12C207.36 371.21 208.88 369.5 210.87 369.5H235.59C237.57 369.5 239.09 371.21 238.78 373.12L235.92 390.93C235.67 392.46 234.32 393.59 232.72 393.59Z" fill="#3C1644"/>
<path d="M232.55 393.87V395.51C232.55 396.87 231.52 397.97 230.25 397.97H215.31C214.04 397.97 213.01 396.87 213.01 395.51V393.87C213.01 392.51 214.04 391.41 215.31 391.41H230.25C231.52 391.41 232.55 392.51 232.55 393.87Z" fill="#3C1644"/>
<path d="M276.85 320.86C276.85 350.74 252.63 374.95 222.76 374.95C192.88 374.95 168.67 350.74 168.67 320.86C168.67 320.82 168.67 320.78 168.67 320.73V248.11H276.84V320.72C276.84 320.77 276.85 320.82 276.85 320.86Z" fill="#F4A4A4"/>
<path d="M276.84 248.11V304.63V320.87C276.84 339.83 267.07 356.54 252.29 366.19C262.53 356.36 268.9 342.53 268.9 327.21C268.9 315.04 259.19 305.06 247.03 304.82C236.61 304.61 225.51 304.03 217.41 302.7C197.89 299.5 180.98 289.89 168.67 267.79V248.11H268.9H276.84Z" fill="#E17F8E"/>
<path d="M170.77 207.52C170.77 225.61 156.99 240.27 139.98 240.27C122.98 240.27 109.2 225.61 109.2 207.52C109.2 189.43 122.98 174.76 139.98 174.76C156.99 174.76 170.77 189.43 170.77 207.52Z" fill="#F4A4A4"/>
<path d="M139.98 230.22C128.55 230.22 119.25 220.04 119.25 207.52C119.25 195 128.55 184.82 139.98 184.82C151.42 184.82 160.72 195 160.72 207.52C160.72 220.04 151.42 230.22 139.98 230.22Z" fill="#E17F8E"/>
<path d="M336.32 207.52C336.32 225.61 322.53 240.27 305.53 240.27C288.53 240.27 274.74 225.61 274.74 207.52C274.74 189.43 288.53 174.76 305.53 174.76C322.53 174.76 336.32 189.43 336.32 207.52Z" fill="#F4A4A4"/>
<path d="M305.53 230.22C294.1 230.22 284.8 220.04 284.8 207.52C284.8 195 294.1 184.82 305.53 184.82C316.96 184.82 326.26 195 326.26 207.52C326.26 220.04 316.96 230.22 305.53 230.22Z" fill="#E17F8E"/>
<path d="M257.09 77.01C283.98 77.01 305.79 98.81 305.79 125.7V197.18H305.66C304.68 237.71 291.39 254.97 271.38 272.8C257.71 285 240.9 294.35 222.73 294.35C204.45 294.35 187.56 284.92 173.87 272.62C153.98 254.74 140.77 237.57 139.79 197.18C139.75 195.55 139.73 193.88 139.73 192.19V125.7C139.73 98.81 161.53 77.01 188.43 77.01H257.09Z" fill="#F6B9B6"/>
<path d="M254.79 212.24C254.83 212.15 254.9 212.02 254.99 211.85C255.13 211.61 255.28 211.23 255.58 210.8C256.15 209.9 257 208.64 258.31 207.35C259.59 206.05 261.33 204.72 263.43 203.72C265.52 202.68 267.97 202.05 270.45 201.85C271.08 201.83 271.69 201.79 272.33 201.82C272.9 201.83 273.53 201.89 274.16 201.95C275.38 202.09 276.55 202.37 277.67 202.71C279.88 203.42 281.8 204.49 283.25 205.61C284.72 206.71 285.72 207.87 286.39 208.67C286.74 209.06 286.96 209.42 287.12 209.64C287.23 209.8 287.31 209.92 287.37 210C287.07 209.74 286.65 209.39 286.12 208.94C285.33 208.27 284.12 207.43 282.61 206.57C281.1 205.72 279.24 204.94 277.18 204.41C276.15 204.15 275.06 204.01 273.96 203.88C273.43 203.84 272.88 203.8 272.27 203.8C271.73 203.78 271.15 203.83 270.59 203.85C269.47 203.94 268.34 204.08 267.26 204.35C266.19 204.62 265.13 204.91 264.15 205.33C262.17 206.12 260.45 207.17 259.06 208.22C257.69 209.27 256.58 210.26 255.9 211.03C255.43 211.54 255.06 211.94 254.79 212.24Z" fill="#E17F8E"/>
<path d="M191.21 212.24C190.94 211.94 190.57 211.54 190.1 211.03C189.42 210.26 188.31 209.27 186.94 208.22C185.55 207.17 183.83 206.12 181.85 205.33C180.87 204.91 179.81 204.62 178.74 204.35C177.66 204.08 176.53 203.94 175.41 203.85C174.85 203.83 174.27 203.78 173.73 203.8C173.12 203.8 172.57 203.84 172.04 203.88C170.94 204.01 169.85 204.15 168.82 204.41C166.76 204.94 164.9 205.72 163.39 206.57C161.88 207.43 160.67 208.27 159.88 208.94C159.35 209.39 158.93 209.74 158.63 210C158.69 209.92 158.77 209.8 158.88 209.64C159.04 209.42 159.26 209.06 159.61 208.67C160.28 207.87 161.28 206.71 162.76 205.61C164.21 204.49 166.12 203.42 168.34 202.71C169.45 202.37 170.62 202.09 171.84 201.95C172.47 201.89 173.1 201.83 173.67 201.82C174.31 201.79 174.92 201.83 175.55 201.85C178.03 202.05 180.49 202.68 182.57 203.72C184.67 204.72 186.41 206.05 187.69 207.35C189 208.64 189.85 209.9 190.42 210.8C190.72 211.23 190.87 211.61 191.01 211.85C191.1 212.02 191.17 212.15 191.21 212.24Z" fill="#E17F8E"/>
<path d="M130.01 176.73C129.84 173.09 130.67 169.72 130.62 166.21C130.56 161.65 128.22 156.94 126.96 152.63C122.86 138.62 123.82 123.18 129.61 109.78C131.04 106.46 132.75 103.27 134.77 100.28C137.06 96.89 139.99 93.59 143.94 92.5C139.59 88.9 136.19 84.14 134.2 78.85C137.41 82.31 141.74 84.7201 146.37 85.6201C140.9 82.9001 138.92 76.08 138.59 69.97C137.78 54.84 143.92 39.4701 154.94 29.0601C152.86 35.3301 155.03 42.75 160.96 46.09C155.81 38.33 155.95 27.4 161.32 19.77C160.58 20.83 162.35 25.16 162.96 26.39C164.13 28.74 166.03 30.9 167.84 32.76C171.53 36.54 176.04 39.48 180.94 41.44C188.85 44.6 197.65 45.24 206.09 44C212.68 43.03 219.08 40.95 225.69 40.17C228.21 39.87 230.76 39.76 233.3 39.77C242 39.82 250.8 41.37 258.6 45.23C269.8 50.77 280.54 62.6601 278.97 75.9301C279.69 69.9001 280.35 63.54 277.93 57.98C281.8 62.64 283.89 68.1101 284.33 74.1801C284.38 74.8401 284.77 82.91 284.83 82.91C285.4 82.91 285.92 82.91 286.5 82.88C290.86 82.59 295.19 83.21 299.39 84.53C302.06 85.37 305.4 86.48 307.51 88.4C304.3 88.23 301.08 88.06 297.87 87.89C316.29 94.33 321.1 118.28 317.52 135.2C316.51 139.95 314.81 144.39 314.44 149.29C313.95 155.78 314.9 157.08 315.09 163.57C315.12 164.32 305.76 167.33 305.18 167.33V147.98C305.18 117.15 280.52 92.17 250.1 92.17C213.69 92.17 195.47 92.17 195.46 92.17C178.71 92.17 162.6 100.09 152.22 113.41C145.43 122.12 141.86 132.74 140.71 143.69C140.19 148.63 140.44 153.62 140.78 158.56C140.94 160.8 141.22 163.05 141.38 165.28C141.53 167.3 140.6 169.59 140.36 171.64C139.94 175.31 139.81 179 139.64 182.69C139.51 185.59 137.08 186.76 134.96 188.43C134.25 188.98 130.41 191.31 130.47 192.35C130.37 187.09 130.24 181.91 130.01 176.73Z" fill="#4E1F56"/>
<path d="M130.47 203.83V163.57H140.39V207.52H134.16C132.12 207.52 130.47 205.87 130.47 203.83Z" fill="#4E1F56"/>
<path d="M311.4 207.52H305.17V163.57H315.09V203.83C315.09 205.87 313.44 207.52 311.4 207.52Z" fill="#4E1F56"/>
<path d="M269.29 125.68C269.24 124.77 269.19 123.85 269.13 122.91L170.38 122.95C170.59 128.38 170.81 133.85 169.9 139.21C168.99 144.57 166.85 149.86 162.98 153.67C161.52 155.11 159.84 156.31 158.23 157.58C147.14 166.32 141.05 178.94 140.37 193.12C140.51 190.31 137.25 186.38 136.35 183.72C135 179.75 134.43 175.15 133.81 171.01C132.43 161.77 132.01 152.38 132.58 143.05C132.89 137.93 134.19 133.92 135.81 129.18C137.2 125.09 137.08 120.55 138.47 116.31C141.03 108.52 145.75 101.65 151.82 96.23C170.29 79.77 197.74 76.8 221.27 76.8C282.26 76.8 312.96 96.69 313.37 136.45C312.33 143.36 311.29 150.27 310.24 157.18C310.24 159.91 309.18 162.85 308.81 165.56C308.39 168.56 308.4 171.41 308.79 174.41C309.03 176.35 309.65 178.37 309.2 180.32C309.2 181.82 308.56 183.46 307.79 184.98C307.24 186.07 306.62 187.09 306.1 187.97C306.57 187.17 304.9 183.17 304.64 182.24C304.1 180.34 303.49 178.46 302.99 176.56C301.61 171.27 299.82 166.24 296.71 161.71C291.26 153.75 281.12 150.92 274.98 143.58C270.32 138 269.68 132.28 269.29 125.68Z" fill="#4E1F56"/>
<path d="M232.44 224.02L229.07 228.16C225.59 232.45 219.93 232.45 216.44 228.16L213.07 224.02C212.1 222.82 212.79 220.78 214.17 220.78H231.35C232.72 220.78 233.41 222.82 232.44 224.02Z" fill="#D88787"/>
<path d="M266.4 193.12C266.4 200.39 262.28 206.28 257.19 206.28C252.1 206.28 247.97 200.39 247.97 193.12C247.97 185.85 252.1 179.96 257.19 179.96C262.28 179.96 266.4 185.85 266.4 193.12Z" fill="#4D1F5A"/>
<path d="M257.19 202.26C254.74 202.26 251.99 198.35 251.99 193.12C251.99 187.89 254.74 183.98 257.19 183.98C259.64 183.98 262.38 187.89 262.38 193.12C262.38 198.35 259.64 202.26 257.19 202.26Z" fill="#3D1749"/>
<path d="M188.36 179.96C193.45 179.96 197.58 185.85 197.58 193.12C197.58 200.39 193.45 206.28 188.36 206.28C183.27 206.28 179.15 200.39 179.15 193.12C179.15 185.85 183.27 179.96 188.36 179.96Z" fill="#4D1F5A"/>
<path d="M188.36 202.26C185.91 202.26 183.17 198.35 183.17 193.12C183.17 187.89 185.91 183.98 188.36 183.98C190.81 183.98 193.55 187.89 193.55 193.12C193.55 198.35 190.81 202.26 188.36 202.26Z" fill="#3D1749"/>
<path d="M205.82 166.35C206.17 166.5 207.09 166.64 207.19 167.11C207.09 166.63 207.06 166.14 207.09 165.65C207.46 166.06 207.82 166.48 208.14 166.92C208.92 167.98 209.52 169.24 209.64 170.57C209.74 171.61 209.74 172.65 209 173.46C207.9 174.65 205.84 175.02 204.32 174.65C201.6 174.01 199.12 172.27 196.51 171.28C191.95 169.57 187.58 168.7 182.7 169.2C178.08 169.67 173.59 171.09 169.32 172.88C168.34 173.29 164.26 176.1 164.26 174.48C164.26 171.41 169.04 168.69 171.28 167.75C173.82 166.68 176.38 165.66 179.03 164.92C184.29 163.44 189.97 162.96 195.48 163.62C199.05 164.04 202.55 164.94 205.82 166.35Z" fill="#4E1F56"/>
<path d="M248.68 163.62C254.19 162.96 259.88 163.44 265.13 164.92C267.78 165.66 270.35 166.68 272.88 167.75C275.12 168.69 279.9 171.41 279.9 174.48C279.9 176.1 275.83 173.29 274.84 172.88C270.57 171.09 266.09 169.67 261.47 169.2C256.58 168.7 252.21 169.57 247.66 171.28C245.05 172.27 242.56 174.01 239.85 174.65C238.32 175.02 236.26 174.65 235.16 173.46C234.42 172.65 234.42 171.61 234.52 170.57C234.65 169.24 235.24 167.98 236.02 166.92C236.35 166.48 236.71 166.06 237.08 165.65C237.1 166.14 237.07 166.63 236.98 167.11C237.07 166.64 238 166.5 238.35 166.35C241.61 164.94 245.11 164.04 248.68 163.62Z" fill="#4E1F56"/>
<path d="M220.8 255.76C204.81 255.76 194.01 248.43 193.84 248.31C192.93 247.68 192.71 246.43 193.34 245.52C193.97 244.61 195.22 244.38 196.14 245.01C197.12 245.69 220.43 261.38 249.44 242.9C250.38 242.3 251.62 242.57 252.22 243.51C252.81 244.45 252.54 245.69 251.6 246.29C240.35 253.46 229.76 255.76 220.8 255.76Z" fill="#E17F8E"/>
<path d="M169.65 327.88L223.74 391.24C199.42 395.23 183.36 410.31 175.56 436.48C168.95 387.59 157.09 353.67 140 334.7L149.36 307.76C149.89 306.25 151.02 305.04 152.48 304.41L169.65 297V327.88Z" fill="#BE3F82"/>
<path d="M169.65 327.88L156.47 312.07C155.32 310.69 155.79 308.6 157.41 307.84L169.65 302.15V327.88Z" fill="#91205C"/>
<path d="M277.84 297L295.01 304.41C296.47 305.04 297.6 306.25 298.12 307.76L307.48 334.7C291.25 344.06 279.39 377.99 271.92 436.48C264.12 410.31 248.06 395.23 223.75 391.24L277.84 327.88V297Z" fill="#BE3F82"/>
<path d="M277.84 302.15L290.07 307.84C291.7 308.6 292.17 310.69 291.02 312.07L277.84 327.88V302.15Z" fill="#91205C"/>
</svg>
