<svg version="1.2" baseProfile="tiny-ps" xmlns="http://www.w3.org/2000/svg" viewBox="0 0 447 447" width="447" height="447">
	<title>OBJECTS</title>
	<style>
		tspan { white-space:pre }
		.shp0 { fill: #c5e4f7 } 
		.shp1 { fill: #4e1f56 } 
		.shp2 { fill: #fefef1 } 
		.shp3 { fill: #793689 } 
		.shp4 { fill: #f4a4a4 } 
		.shp5 { fill: #e17f8e } 
		.shp6 { fill: #f6b9b6 } 
		.shp7 { fill: #d88787 } 
		.shp8 { fill: #61200d } 
		.shp9 { fill: #441308 } 
	</style>
	<g id="OBJECTS">
		<g id="&lt;Group&gt;">
			<g id="&lt;Group&gt;">
				<g id="&lt;Group&gt;">
					<g id="&lt;Group&gt;">
						<g id="&lt;Group&gt;">
							<g id="&lt;Group&gt;">
								<g id="&lt;Group&gt;">
									<g id="&lt;Group&gt;">
										<path id="&lt;Path&gt;" class="shp0" d="M446.49 223.46C446.49 273.47 430.03 319.61 402.26 356.77C399.75 360.12 397.13 363.42 394.42 366.62C392.91 368.45 391.36 370.24 389.77 372.01C388.37 373.57 386.94 375.12 385.49 376.65C344.9 419.52 287.45 446.24 223.76 446.24C160.08 446.24 102.62 419.52 62.02 376.67C62.02 376.65 62.02 376.65 62 376.65C61.96 376.61 61.92 376.57 61.88 376.53C58.83 373.31 55.87 370.02 53.02 366.62C50.32 363.42 47.73 360.12 45.21 356.77C17.45 319.61 0.98 273.47 0.98 223.46C0.98 100.45 100.71 0.73 223.76 0.73C346.77 0.73 446.49 100.45 446.49 223.46Z" />
									</g>
									<g id="&lt;Group&gt;">
										<path id="&lt;Path&gt;" class="shp1" d="M180.19 257.92C182.8 262.14 185.16 266.57 186.05 271.28C186.94 276 186.23 281.06 183.14 284.87C182.2 286.03 181.1 287.15 179.98 288.13C179.1 288.89 178.23 289.52 177.57 290.51C176.26 292.47 175.78 295.01 176.45 297.29C176.61 297.83 176.83 298.36 177.08 298.87C177.58 299.92 178.24 300.95 179.25 301.52C178.35 301.24 177.5 300.79 176.76 300.19C176.15 299.69 175.61 299.1 175.13 298.46C171.99 294.26 171.56 288.2 174.09 283.61C173.88 283.98 173.38 284.19 173.14 284.57C172.93 284.92 172.79 285.38 172.6 285.75C172.1 286.77 171.7 287.84 171.42 288.94C170.85 291.18 170.78 293.55 171.25 295.81C169.59 293.25 168.28 290.46 167.9 287.55C167.54 284.74 168 281.43 170.11 279.25C167.88 278.78 165.49 278.97 163.43 279.78C164.37 278.15 165.81 276.76 167.57 275.79C166.55 275.21 165.82 274.31 165.12 273.43C156.56 262.68 148.53 250.06 150.07 235.73C150.46 232.12 151.16 229.27 155.48 230.04C158.44 230.57 161.51 232.75 163.36 235.07C169.3 242.5 175.25 249.95 180.19 257.92Z" />
									</g>
									<g id="&lt;Group&gt;">
										<path id="&lt;Path&gt;" class="shp1" d="M284.59 235.07C286.44 232.75 289.52 230.57 292.47 230.04C296.8 229.27 297.5 232.12 297.89 235.73C299.43 250.06 291.4 262.68 282.84 273.43C282.14 274.31 281.41 275.21 280.39 275.79C282.15 276.76 283.59 278.15 284.52 279.78C282.46 278.97 280.08 278.78 277.85 279.25C279.96 281.43 280.42 284.74 280.05 287.55C279.67 290.46 278.37 293.25 276.71 295.81C277.17 293.55 277.11 291.18 276.54 288.94C276.26 287.84 275.86 286.77 275.35 285.75C275.17 285.38 275.03 284.92 274.81 284.57C274.58 284.19 274.07 283.98 273.87 283.61C276.4 288.2 275.97 294.26 272.82 298.46C272.34 299.1 271.81 299.69 271.19 300.19C270.46 300.79 269.61 301.24 268.71 301.52C269.72 300.95 270.37 299.92 270.88 298.87C271.12 298.36 271.34 297.83 271.5 297.29C272.18 295.01 271.7 292.47 270.39 290.51C269.72 289.52 268.85 288.89 267.97 288.13C266.85 287.15 265.75 286.03 264.82 284.87C261.73 281.06 261.02 276 261.91 271.28C262.8 266.57 265.15 262.14 267.77 257.92C272.71 249.95 278.66 242.5 284.59 235.07Z" />
									</g>
									<g id="&lt;Group&gt;">
										<g id="&lt;Group&gt;">
											<path id="&lt;Path&gt;" class="shp2" d="M312.36 321.18L300.62 432.58C300.08 432.8 299.54 432.98 299 433.18C297.04 433.9 295.06 434.6 293.06 435.24C291.88 435.62 290.7 435.98 289.52 436.34L289.52 436.36C268.72 442.78 246.62 446.24 223.74 446.24C200.84 446.24 178.76 442.78 157.96 436.36C154.22 435.22 150.52 433.96 146.86 432.6L135.12 321.18C137.5 320.18 139.82 319.32 142.04 318.64C142.14 318.6 142.24 318.56 142.34 318.54C142.4 318.52 142.44 318.5 142.46 318.52C143.9 318.16 145.34 317.8 146.82 317.44C146.84 317.42 146.86 317.42 146.9 317.42C146.94 317.42 146.98 317.4 147 317.4C148.76 316.96 150.54 316.54 152.34 316.12C152.36 316.12 152.36 316.12 152.36 316.12C152.38 316.12 152.42 316.1 152.44 316.1C153.56 315.82 154.7 315.56 155.84 315.3C178.74 310.08 203.84 305.68 223.68 305.64L223.78 305.64C243.62 305.68 268.72 310.08 291.58 315.3C292.74 315.58 293.9 315.84 295.04 316.1C295.08 316.1 295.12 316.12 295.16 316.12C295.26 316.16 295.36 316.18 295.48 316.22C297.04 316.56 298.6 316.96 300.14 317.32C300.18 317.34 300.2 317.34 300.24 317.34C301.92 317.76 303.6 318.16 305.24 318.58C305.3 318.6 305.34 318.6 305.4 318.62C305.44 318.6 305.48 318.62 305.54 318.66C307.74 319.34 310.02 320.18 312.36 321.18Z" />
											<path id="&lt;Path&gt;" class="shp1" d="M373.76 388.14L373.76 388.16C373.74 388.16 373.72 388.18 373.7 388.2C364.44 396.64 354.46 404.3 343.88 411.08C339.5 413.9 335.02 416.56 330.44 419.06C325.4 421.8 320.22 424.38 314.98 426.72C310.28 428.84 305.5 430.8 300.62 432.58L300.62 432.6C300.08 432.8 299.54 433 299 433.18C297.04 433.9 295.06 434.6 293.06 435.24C291.88 435.62 290.7 436 289.52 436.36L289.52 436.34L295 316.3C295 316.22 295 316.16 295.04 316.1C295.2 314.9 296.4 314.14 297.58 314.54L311.04 318.98C311.92 319.26 312.48 320.12 312.38 321.04L312.36 321.18C318.78 323.86 325.56 327.54 331.64 331.16C332.66 331.76 333.66 332.4 334.64 333.06C345.88 340.44 354.98 350.74 361.02 362.78L373.76 388.14Z" />
											<g id="&lt;Group&gt;">
												<path id="&lt;Path&gt;" class="shp1" d="M157.96 436.36C154.22 435.22 150.52 433.96 146.86 432.6C143.26 431.3 139.7 429.88 136.18 428.38C135.86 428.24 135.56 428.1 135.24 427.96C134.3 427.56 133.4 427.16 132.48 426.72C129.62 425.44 126.8 424.12 124.04 422.72C117 419.18 110.16 415.3 103.56 411.06C92.98 404.26 83.02 396.58 73.76 388.16L86.52 362.78C91.58 352.74 98.72 343.94 107.48 336.98C109.12 335.68 110.82 334.42 112.6 333.26C113.68 332.52 114.8 331.82 115.94 331.14C116.48 330.8 117.06 330.46 117.64 330.14C123.24 326.84 129.34 323.62 135.12 321.18L135.1 321.04C135 320.12 135.56 319.26 136.44 318.98L149.9 314.54C151.08 314.14 152.28 314.9 152.44 316.1C152.48 316.16 152.48 316.22 152.48 316.3L157.96 436.36Z" />
											</g>
											<g id="&lt;Group&gt;">
												<path id="&lt;Path&gt;" class="shp3" d="M279.82 315.81C279.82 350.45 254.61 378.65 223.64 378.65C192.67 378.65 167.46 350.45 167.46 315.81C167.46 315.79 167.46 315.77 167.46 315.75C167.46 312.38 169.64 309.48 172.58 308.77C190.07 304.5 208.65 301.12 223.61 301.1L223.69 301.1C238.65 301.12 257.22 304.5 274.7 308.77C277.64 309.48 279.81 312.38 279.82 315.75C279.82 315.77 279.82 315.79 279.82 315.81Z" />
											</g>
											<g id="&lt;Group&gt;">
												<path id="&lt;Path&gt;" class="shp0" d="M152.36 316.12C151.04 316.56 149.26 316.98 147.02 317.4C148.78 316.96 150.56 316.54 152.36 316.12Z" />
											</g>
											<g id="&lt;Group&gt;">
												<path id="&lt;Path&gt;" class="shp0" d="M300.16 317.32C298.24 316.96 296.7 316.6 295.48 316.22C297.06 316.56 298.62 316.96 300.16 317.32Z" />
											</g>
										</g>
										<g id="&lt;Group&gt;">
											<path id="&lt;Path&gt;" class="shp4" d="M267.39 313.84C267.39 343.71 247.84 367.93 223.74 367.93C199.63 367.93 180.09 343.71 180.09 313.84C180.09 313.79 180.09 313.75 180.09 313.71L180.09 241.08L267.38 241.08L267.38 313.7C267.38 313.74 267.39 313.79 267.39 313.84Z" />
											<path id="&lt;Path&gt;" class="shp5" d="M267.38 248.84L267.38 301.77L267.38 316.98C267.38 334.74 259.5 350.38 247.57 359.42C255.83 350.21 260.98 337.26 260.98 322.91C260.98 311.52 253.14 302.18 243.32 301.94C242.92 301.93 242.52 301.93 242.12 301.94C233.47 302 225.25 303.75 216.56 302.56C208.46 301.45 200.42 298.66 193.93 293.58C191.28 291.5 188.93 289.04 186.84 286.39C185.61 284.82 184.46 283.18 183.38 281.5C182.57 280.24 180.09 277.33 180.09 275.85C180.09 275.84 180.09 266.84 180.09 248.84L260.98 248.84L267.38 248.84Z" />
										</g>
									</g>
									<g id="&lt;Group&gt;">
										<g id="&lt;Group&gt;">
											<g id="&lt;Group&gt;">
												<path id="&lt;Path&gt;" class="shp4" d="M174.33 208.24C174.33 226.34 161.22 241 145.06 241C128.9 241 115.8 226.34 115.8 208.24C115.8 190.15 128.9 175.49 145.06 175.49C161.22 175.49 174.33 190.15 174.33 208.24Z" />
												<path id="&lt;Path&gt;" class="shp5" d="M145.06 230.95C134.2 230.95 125.36 220.76 125.36 208.24C125.36 195.73 134.2 185.54 145.06 185.54C155.93 185.54 164.77 195.73 164.77 208.24C164.77 220.76 155.93 230.95 145.06 230.95Z" />
											</g>
											<g id="&lt;Group&gt;">
												<path id="&lt;Path&gt;" class="shp4" d="M331.67 208.24C331.67 226.34 318.57 241 302.41 241C286.25 241 273.15 226.34 273.15 208.24C273.15 190.15 286.25 175.49 302.41 175.49C318.57 175.49 331.67 190.15 331.67 208.24Z" />
												<path id="&lt;Path&gt;" class="shp5" d="M302.41 230.95C291.54 230.95 282.7 220.76 282.7 208.24C282.7 195.73 291.54 185.54 302.41 185.54C313.28 185.54 322.12 195.73 322.12 208.24C322.12 220.76 313.28 230.95 302.41 230.95Z" />
											</g>
										</g>
										<path id="&lt;Path&gt;" class="shp6" d="M256.31 77.73C281.83 77.73 302.52 99.54 302.52 126.43L302.52 197.91L302.4 197.91C301.47 238.44 288.86 255.69 269.87 273.53C262.63 280.34 249.09 291.05 238.54 294.96C228.93 298.51 218.47 298.5 208.86 294.94C198.25 291 184.62 280.23 177.35 273.35C158.48 255.47 145.95 238.3 145.01 197.91C144.98 196.28 144.96 194.61 144.96 192.92L144.96 126.43C144.96 99.54 165.64 77.73 191.16 77.73L256.31 77.73Z" />
									</g>
									<g id="&lt;Group&gt;">
										<g id="&lt;Group&gt;">
											<g id="&lt;Group&gt;">
												<path id="&lt;Path&gt;" class="shp1" d="M297.1 231.26C296.4 228.59 295.8 225.92 295.44 223.2C294.32 214.87 294.19 206.41 295.04 198.04C295.87 189.84 298.7 181.85 294.94 173.91C293.01 169.81 289.45 166.31 289.03 161.81C288.76 158.84 289.95 155.87 291.74 153.48C293.53 151.1 295.89 149.2 298.25 147.38C300.66 145.53 303.08 143.49 305.68 141.9C307.17 140.98 308.83 140.5 310.06 139.22C312.37 136.8 316.59 127.79 315.3 124.38C318.52 132.92 319.48 142.08 319.75 151.14C319.89 155.79 319.85 160.45 319.84 165.1C319.84 169.14 319.78 173.41 319.09 177.4C318.86 178.75 318.5 180.09 318.02 181.39C314.89 179.5 310.32 178.11 307.79 181.74C306.03 184.28 306.27 187.87 305.78 190.79C304.71 197.24 303.99 203.75 303.66 210.28C303.11 220.92 302.75 232.62 307.92 242.3C310.16 246.51 311.84 251.84 312.11 256.61C312.5 263.35 309.24 269.86 304.62 274.62C301.87 277.46 298.87 280.06 295.67 282.39C294.12 283.52 292.49 284.61 291.37 286.17C290.73 287.07 290.27 288.1 289.97 289.16C289.55 290.67 289.44 292.31 289.99 293.77C290.54 295.23 291.85 296.47 293.4 296.63C294.96 296.8 296.62 295.67 296.79 294.12C296.58 296.22 295.13 298.15 293.18 298.94C291.22 299.74 288.84 299.38 287.22 298.03C285.1 296.27 284.49 293.29 284.36 290.54C284.26 288.61 284.34 286.64 284.95 284.81C286.2 281.08 289.36 278.55 292.24 276.08C295.08 273.63 297.95 271.07 300.02 267.91C302.29 264.47 302.6 261.35 302.63 257.24C302.67 248.33 299.35 239.87 297.1 231.26Z" />
											</g>
										</g>
									</g>
									<g id="&lt;Group&gt;">
										<g id="&lt;Group&gt;">
											<g id="&lt;Group&gt;">
												<path id="&lt;Path&gt;" class="shp1" d="M144.53 257.24C144.55 261.35 144.86 264.47 147.13 267.91C149.21 271.07 152.07 273.63 154.92 276.08C157.79 278.55 160.95 281.08 162.2 284.81C162.81 286.64 162.89 288.61 162.8 290.54C162.66 293.29 162.05 296.27 159.93 298.03C158.31 299.38 155.93 299.74 153.97 298.94C152.02 298.15 150.58 296.22 150.36 294.12C150.53 295.67 152.2 296.8 153.75 296.63C155.3 296.47 156.61 295.23 157.16 293.77C157.71 292.31 157.6 290.67 157.18 289.16C156.88 288.1 156.42 287.07 155.78 286.17C154.66 284.61 153.03 283.52 151.48 282.39C148.28 280.06 145.28 277.46 142.53 274.62C137.91 269.86 134.65 263.35 135.04 256.61C135.31 251.84 136.99 246.51 139.24 242.3C144.4 232.62 144.04 220.92 143.49 210.28C143.16 203.75 142.44 197.24 141.37 190.79C140.89 187.87 141.12 184.28 139.36 181.74C136.83 178.11 132.26 179.5 129.13 181.39C128.65 180.09 128.29 178.75 128.06 177.4C127.37 173.41 127.31 169.14 127.31 165.1C127.3 160.45 127.26 155.79 127.4 151.14C127.67 142.08 128.63 132.92 131.85 124.38C130.56 127.79 134.78 136.8 137.09 139.22C138.32 140.5 139.98 140.98 141.48 141.9C144.07 143.49 146.49 145.53 148.9 147.38C151.27 149.2 153.62 151.1 155.41 153.48C157.2 155.87 158.39 158.84 158.12 161.81C157.7 166.31 154.14 169.81 152.21 173.91C148.45 181.85 151.28 189.84 152.11 198.04C152.96 206.41 152.83 214.87 151.71 223.2C151.35 225.92 150.75 228.59 150.05 231.26C147.8 239.87 144.48 248.33 144.53 257.24Z" />
											</g>
										</g>
									</g>
									<g id="&lt;Group&gt;">
										<path id="&lt;Path&gt;" class="shp7" d="M233.42 224.75L230.05 228.89C226.56 233.18 220.91 233.18 217.42 228.89L214.05 224.75C213.08 223.55 213.77 221.5 215.15 221.5L232.33 221.5C233.7 221.5 234.39 223.55 233.42 224.75Z" />
									</g>
									<g id="&lt;Group&gt;">
										<path id="&lt;Path&gt;" class="shp8" d="M267.38 193.85C267.38 201.11 263.26 207.01 258.17 207.01C253.08 207.01 248.95 201.11 248.95 193.85C248.95 186.58 253.08 180.68 258.17 180.68C263.26 180.68 267.38 186.58 267.38 193.85Z" />
										<path id="&lt;Path&gt;" class="shp9" d="M258.17 202.99C255.72 202.99 252.97 199.08 252.97 193.85C252.97 188.61 255.72 184.7 258.17 184.7C260.62 184.7 263.36 188.61 263.36 193.85C263.36 199.08 260.62 202.99 258.17 202.99Z" />
									</g>
									<g id="&lt;Group&gt;">
										<path id="&lt;Path&gt;" class="shp8" d="M189.34 180.68C194.43 180.68 198.56 186.58 198.56 193.85C198.56 201.11 194.43 207.01 189.34 207.01C184.25 207.01 180.13 201.11 180.13 193.85C180.13 186.58 184.25 180.68 189.34 180.68Z" />
										<path id="&lt;Path&gt;" class="shp9" d="M189.34 202.99C186.89 202.99 184.15 199.08 184.15 193.85C184.15 188.61 186.89 184.7 189.34 184.7C191.79 184.7 194.53 188.61 194.53 193.85C194.53 199.08 191.79 202.99 189.34 202.99Z" />
									</g>
									<g id="&lt;Group&gt;">
										<path id="&lt;Path&gt;" class="shp8" d="M206.8 167.07C207.15 167.22 208.07 167.37 208.17 167.84C208.07 167.36 208.04 166.87 208.07 166.38C208.44 166.79 208.8 167.2 209.12 167.65C209.9 168.71 210.5 169.97 210.62 171.29C210.72 172.33 210.72 173.38 209.98 174.19C208.88 175.38 206.82 175.75 205.3 175.38C202.58 174.74 200.1 173 197.49 172.01C192.93 170.3 188.56 169.43 183.68 169.93C179.06 170.4 174.57 171.81 170.3 173.6C169.32 174.02 165.24 176.83 165.24 175.21C165.24 172.14 170.02 169.42 172.26 168.47C174.8 167.4 177.36 166.38 180.01 165.64C185.27 164.17 190.95 163.69 196.46 164.34C200.03 164.77 203.53 165.66 206.8 167.07Z" />
									</g>
									<g id="&lt;Group&gt;">
										<path id="&lt;Path&gt;" class="shp8" d="M249.66 164.34C255.17 163.69 260.86 164.17 266.11 165.64C268.76 166.38 271.33 167.4 273.86 168.47C276.1 169.42 280.88 172.14 280.88 175.21C280.88 176.83 276.81 174.02 275.82 173.6C271.55 171.81 267.07 170.4 262.45 169.93C257.56 169.43 253.19 170.3 248.64 172.01C246.03 173 243.54 174.74 240.83 175.38C239.3 175.75 237.24 175.38 236.14 174.19C235.4 173.38 235.4 172.33 235.5 171.29C235.63 169.97 236.22 168.71 237 167.65C237.33 167.2 237.69 166.79 238.06 166.38C238.08 166.87 238.05 167.36 237.96 167.84C238.05 167.37 238.98 167.22 239.33 167.07C242.59 165.66 246.09 164.77 249.66 164.34Z" />
									</g>
									<g id="&lt;Group&gt;">
										<g id="&lt;Group&gt;">
											<path id="&lt;Path&gt;" class="shp5" d="M221.78 256.49C205.79 256.49 194.99 249.15 194.82 249.04C193.91 248.4 193.69 247.15 194.32 246.24C194.95 245.33 196.2 245.1 197.12 245.74C198.1 246.41 221.41 262.11 250.42 243.62C251.36 243.03 252.6 243.3 253.2 244.24C253.79 245.18 253.52 246.42 252.58 247.02C241.33 254.18 230.74 256.49 221.78 256.49Z" />
										</g>
									</g>
								</g>
							</g>
							<g id="&lt;Group&gt;">
								<g id="&lt;Group&gt;">
									<g id="&lt;Group&gt;">
										<path id="&lt;Path&gt;" class="shp1" d="M182.52 53.92C180.44 49.05 180.06 43.53 181.08 38.33C182.11 33.14 184.5 28.26 187.69 24.03C185.62 29.83 185.11 35.83 186.97 41.81C186.68 40.88 187.29 39.07 187.51 38.14C188.34 34.48 190.89 30.81 193.18 27.91C196.24 24.01 200.06 20.71 204.33 18.21C213.99 12.56 225.69 11.24 236.27 14.94C239.19 15.96 241.99 17.28 244.64 18.86C246.8 20.14 248.84 21.6 250.74 23.24C255 26.92 258.22 33.13 259.85 38.48C260.51 40.63 260.94 42.84 261.1 45.08C261.18 46.22 261.19 47.36 261.12 48.49C261.07 49.51 261.17 51.07 260.61 51.93C262.99 46.41 264 39.99 261.81 34.38C263.75 35.95 264.72 38.41 265.42 40.8C266.99 46.16 267.57 52.03 265.6 57.25C270.84 57.78 275.75 60.91 278.42 65.45C275.58 63.77 272.61 62.3 269.47 61.29C267.59 60.68 265.43 60.14 263.45 60.52C261.36 60.92 259.89 62.41 257.88 62.99C255.27 63.74 252.59 64.32 249.92 64.84C244.44 65.91 238.89 66.57 233.31 66.83C219.02 67.49 204.55 65.44 190.94 61.04C186.48 59.6 184.42 58.36 182.52 53.92Z" />
									</g>
									<path id="&lt;Path&gt;" class="shp1" d="M317.2 131.83C317.2 135.13 317.05 138.42 317.9 141.82C318.58 144.47 319.61 147.19 319.22 149.97C318.87 145.9 317.05 145.19 313.62 143.98C309.05 142.37 305.01 139.28 301.35 136.17C296.54 132.09 292.67 127.47 288.81 122.53C279.91 111.13 266.53 103.93 252.29 102.77C250.95 102.67 249.61 102.61 248.25 102.61C248.24 102.61 231.15 102.61 196.99 102.61C168.45 102.61 145.31 126.05 145.31 154.97C145.31 157.66 144.95 160.36 144.93 163.1C144.92 165.57 143.98 170.15 144.88 172.42C143.05 167.92 140.73 163.65 138.41 159.39C136.16 155.25 133.2 151.01 131.71 146.57C130.25 142.25 130.13 137.36 130.23 132.85C130.34 128.22 130.98 123.61 132.11 119.11C139.5 89.71 167.12 63.37 196 54.88C197.75 54.37 199.5 53.91 201.28 53.54C201.31 53.53 201.34 53.52 201.38 53.52C202.69 53.24 204.01 53.01 205.34 52.81C221.11 50.52 237.45 51.04 252.78 55.58C267.72 60.01 281.81 69.43 293.26 79.87C302.64 88.43 309.22 99.65 313.22 111.63C314.87 116.56 316.32 121.76 316.97 126.92C317.17 128.56 317.21 130.2 317.2 131.83Z" />
								</g>
							</g>
							<g id="&lt;Group&gt;">
								<path id="&lt;Path&gt;" class="shp5" d="M196.23 216.84C194.6 220.16 187.56 220.15 180.11 220.26C172.66 220.14 165.61 220.15 163.99 216.84C162.3 213.64 169.26 207.01 180.11 207.01C190.96 207.01 197.92 213.63 196.23 216.84Z" />
								<path id="&lt;Path&gt;" class="shp5" d="M283.48 216.84C281.86 220.15 274.82 220.14 267.37 220.26C259.92 220.15 252.87 220.15 251.25 216.84C249.56 213.63 256.51 207.01 267.37 207.01C278.22 207.01 285.18 213.63 283.48 216.84Z" />
							</g>
						</g>
						<g id="&lt;Group&gt;">
							<g id="&lt;Group&gt;">
								<path id="&lt;Path&gt;" class="shp1" d="M306.82 173.48C305.01 188.19 301.62 202.61 298.83 217.15C297.26 210.57 295.81 203.97 293.86 197.49C290.55 186.5 287.3 174.55 277.02 168.11C268.53 162.82 258.12 161.76 248.13 161.4C233.68 160.89 218.64 161.44 205.49 155.43C192.31 149.42 182.35 136.8 179.58 122.58C179.65 130.77 180.2 138.49 177.17 146.36C173.84 155.03 165.98 161.86 159.27 168.06C155.32 171.7 151.33 174.63 149.33 179.8C147.68 184.07 146.75 189.12 146.75 193.7C146.75 191.11 143.85 187.56 143.04 185.17C141.8 181.51 141.26 177.26 140.7 173.45C137.35 150.88 139 120.74 157.32 104.45C169.96 93.18 186.8 88.36 203.35 86.8C222.21 85.02 241.75 86.48 260.35 89.8C271.93 91.86 282.42 97.5 290.67 105.98C308.28 124.59 309.83 149.05 306.82 173.48Z" />
							</g>
						</g>
					</g>
					<g id="&lt;Group&gt;">
						<path id="&lt;Path&gt;" class="shp3" d="M157.96 436.36C154.22 435.22 150.52 433.96 146.86 432.6L135.12 321.18L135.1 321.04C135 320.12 135.56 319.26 136.44 318.98L149.9 314.54C151.08 314.14 152.28 314.9 152.44 316.1C152.48 316.16 152.48 316.22 152.48 316.3L157.96 436.36Z" />
					</g>
					<g id="&lt;Group&gt;">
						<path id="&lt;Path&gt;" class="shp3" d="M312.38 321.04L312.36 321.18L300.62 432.58L300.62 432.6C300.08 432.8 299.54 433 299 433.18C297.04 433.9 295.06 434.6 293.06 435.24C291.88 435.62 290.7 436 289.52 436.36L289.52 436.34L295 316.3C295 316.22 295 316.16 295.04 316.1C295.2 314.9 296.4 314.14 297.58 314.54L311.04 318.98C311.92 319.26 312.48 320.12 312.38 321.04Z" />
					</g>
				</g>
			</g>
		</g>
	</g>
</svg>